<svg width="20" height="20" viewBox="0 0 20 20" fill="none" xmlns="http://www.w3.org/2000/svg">
<path d="M12.2632 9.4035L8.09658 5.23684C8.01888 5.15914 7.92664 5.0975 7.82512 5.05545C7.7236 5.0134 7.6148 4.99176 7.50491 4.99176C7.283 4.99176 7.07017 5.07992 6.91325 5.23684C6.83555 5.31454 6.77391 5.40678 6.73186 5.5083C6.68981 5.60981 6.66817 5.71862 6.66817 5.8285C6.66817 6.05042 6.75633 6.26325 6.91325 6.42017L10.4966 9.99517L6.91325 13.5702C6.83514 13.6476 6.77315 13.7398 6.73084 13.8414C6.68853 13.9429 6.66675 14.0518 6.66675 14.1618C6.66675 14.2718 6.68853 14.3808 6.73084 14.4823C6.77315 14.5839 6.83514 14.676 6.91325 14.7535C6.99072 14.8316 7.08288 14.8936 7.18443 14.9359C7.28598 14.9782 7.3949 15 7.50491 15C7.61492 15 7.72385 14.9782 7.82539 14.9359C7.92694 14.8936 8.01911 14.8316 8.09658 14.7535L12.2632 10.5868C12.3414 10.5094 12.4034 10.4172 12.4457 10.3157C12.488 10.2141 12.5097 10.1052 12.5097 9.99517C12.5097 9.88516 12.488 9.77624 12.4457 9.67469C12.4034 9.57314 12.3414 9.48097 12.2632 9.4035Z" fill="white"/>
</svg>
