<svg width="30" height="30" viewBox="0 0 30 30" fill="none" xmlns="http://www.w3.org/2000/svg">
<rect x="0.25" y="0.25" width="29.5" height="29.5" rx="5.75" fill="#1C172D"/>
<rect x="0.25" y="0.25" width="29.5" height="29.5" rx="5.75" stroke="#7339E6" stroke-width="0.5"/>
<path d="M15 21.875V15.625M15 15.625C15 12.5388 15.8 10.255 16.1538 9.53878C17.3075 7.20378 20.1912 7.78753 20.1912 8.95503C20.1912 10.7075 16.1538 11.875 16.1538 11.875H21.875V15.625H20.7212M15 15.625C15 12.5388 14.2 10.255 13.8463 9.53878C12.6713 7.16128 9.80875 7.78753 9.80875 8.95503C9.80875 11.2913 13.8463 11.875 13.8463 11.875H8.125V15.625H9.375M20.7212 15.625V21.875H9.375V15.625M20.7212 15.625H9.375" stroke="#7339E6" stroke-width="1.2" stroke-linejoin="round"/>
</svg>
