<svg width="12" height="12" viewBox="0 0 12 12" fill="none" xmlns="http://www.w3.org/2000/svg">
<path d="M3.25 3.108V1.953C3.25007 1.76653 3.32419 1.58772 3.45607 1.45589C3.58794 1.32406 3.76678 1.25 3.95325 1.25H10.0468C10.2333 1.25 10.4121 1.32409 10.544 1.45598C10.6759 1.58786 10.75 1.76674 10.75 1.95325V8.047C10.7499 8.23343 10.6758 8.4122 10.544 8.54402C10.4122 8.67585 10.2334 8.74993 10.047 8.75H8.879" stroke="#6F7074" stroke-linecap="round" stroke-linejoin="round"/>
<path d="M8.047 3.25H1.95275C1.76632 3.25013 1.58758 3.32428 1.4558 3.45615C1.32402 3.58802 1.25 3.76682 1.25 3.95325V10.0468C1.25 10.2333 1.32409 10.4121 1.45598 10.544C1.58786 10.6759 1.76674 10.75 1.95325 10.75H8.047C8.23343 10.7499 8.4122 10.6758 8.54402 10.544C8.67585 10.4122 8.74993 10.2334 8.75 10.047V3.95275C8.74987 3.76637 8.67575 3.58766 8.54393 3.45589C8.41212 3.32412 8.23338 3.25007 8.047 3.25Z" stroke="#6F7074" stroke-linejoin="round"/>
</svg>
