<svg width="30" height="30" viewBox="0 0 30 30" fill="none" xmlns="http://www.w3.org/2000/svg">
<rect x="0.25" y="0.25" width="29.5" height="29.5" rx="5.75" fill="#1C172D"/>
<rect x="0.25" y="0.25" width="29.5" height="29.5" rx="5.75" stroke="#7339E6" stroke-width="0.5"/>
<path d="M11.75 14C12.612 14 13.4386 13.6576 14.0481 13.0481C14.6576 12.4386 15 11.612 15 10.75C15 9.88805 14.6576 9.0614 14.0481 8.4519C13.4386 7.84241 12.612 7.5 11.75 7.5C10.888 7.5 10.0614 7.84241 9.4519 8.4519C8.84241 9.0614 8.5 9.88805 8.5 10.75C8.5 11.612 8.84241 12.4386 9.4519 13.0481C10.0614 13.6576 10.888 14 11.75 14ZM22 11.5C22 12.163 21.7366 12.7989 21.2678 13.2678C20.7989 13.7366 20.163 14 19.5 14C18.837 14 18.2011 13.7366 17.7322 13.2678C17.2634 12.7989 17 12.163 17 11.5C17 10.837 17.2634 10.2011 17.7322 9.73223C18.2011 9.26339 18.837 9 19.5 9C20.163 9 20.7989 9.26339 21.2678 9.73223C21.7366 10.2011 22 10.837 22 11.5ZM14 19.5C14 17.796 14.775 16.272 15.993 15.263C15.6905 15.0904 15.3483 14.9997 15 15H8.5C7.96957 15 7.46086 15.2107 7.08579 15.5858C6.71071 15.9609 6.5 16.4696 6.5 17C6.5 17 6.5 21 11.75 21C12.703 21 13.483 20.868 14.121 20.653C14.0402 20.274 13.9996 19.8875 14 19.5ZM24 19.5C24 20.6935 23.5259 21.8381 22.682 22.682C21.8381 23.5259 20.6935 24 19.5 24C18.3065 24 17.1619 23.5259 16.318 22.682C15.4741 21.8381 15 20.6935 15 19.5C15 18.3065 15.4741 17.1619 16.318 16.318C17.1619 15.4741 18.3065 15 19.5 15C20.6935 15 21.8381 15.4741 22.682 16.318C23.5259 17.1619 24 18.3065 24 19.5ZM20 17.5C20 17.3674 19.9473 17.2402 19.8536 17.1464C19.7598 17.0527 19.6326 17 19.5 17C19.3674 17 19.2402 17.0527 19.1464 17.1464C19.0527 17.2402 19 17.3674 19 17.5V19H17.5C17.3674 19 17.2402 19.0527 17.1464 19.1464C17.0527 19.2402 17 19.3674 17 19.5C17 19.6326 17.0527 19.7598 17.1464 19.8536C17.2402 19.9473 17.3674 20 17.5 20H19V21.5C19 21.6326 19.0527 21.7598 19.1464 21.8536C19.2402 21.9473 19.3674 22 19.5 22C19.6326 22 19.7598 21.9473 19.8536 21.8536C19.9473 21.7598 20 21.6326 20 21.5V20H21.5C21.6326 20 21.7598 19.9473 21.8536 19.8536C21.9473 19.7598 22 19.6326 22 19.5C22 19.3674 21.9473 19.2402 21.8536 19.1464C21.7598 19.0527 21.6326 19 21.5 19H20V17.5Z" fill="#7339E6"/>
</svg>
