<svg width="20" height="20" viewBox="0 0 20 20" fill="none" xmlns="http://www.w3.org/2000/svg">
<rect x="0.25" y="0.25" width="19.5" height="19.5" rx="5.75" fill="#1C172D"/>
<rect x="0.25" y="0.25" width="19.5" height="19.5" rx="5.75" stroke="#7339E6" stroke-width="0.5"/>
<path d="M14 10.6653H10.6667V13.9987C10.6667 14.1755 10.5964 14.345 10.4714 14.4701C10.3464 14.5951 10.1768 14.6653 10 14.6653C9.82319 14.6653 9.65362 14.5951 9.52859 14.4701C9.40357 14.345 9.33333 14.1755 9.33333 13.9987V10.6653H6C5.82319 10.6653 5.65362 10.5951 5.5286 10.4701C5.40357 10.345 5.33333 10.1755 5.33333 9.99867C5.33333 9.82186 5.40357 9.65229 5.5286 9.52726C5.65362 9.40224 5.82319 9.332 6 9.332H9.33333V5.99867C9.33333 5.82186 9.40357 5.65229 9.52859 5.52726C9.65362 5.40224 9.82319 5.332 10 5.332C10.1768 5.332 10.3464 5.40224 10.4714 5.52726C10.5964 5.65229 10.6667 5.82186 10.6667 5.99867V9.332H14C14.1768 9.332 14.3464 9.40224 14.4714 9.52726C14.5964 9.65229 14.6667 9.82186 14.6667 9.99867C14.6667 10.1755 14.5964 10.345 14.4714 10.4701C14.3464 10.5951 14.1768 10.6653 14 10.6653Z" fill="#7339E6"/>
</svg>
