<svg width="15" height="15" viewBox="0 0 15 15" fill="none" xmlns="http://www.w3.org/2000/svg">
<path d="M7.58838 10.4217C7.7239 10.2857 7.79167 10.1174 7.79167 9.91667V7.08333C7.79167 6.88264 7.72367 6.71453 7.58767 6.579C7.45167 6.44347 7.28356 6.37547 7.08333 6.375C6.88311 6.37453 6.715 6.44253 6.579 6.579C6.443 6.71547 6.375 6.88358 6.375 7.08333V9.91667C6.375 10.1174 6.443 10.2857 6.579 10.4217C6.715 10.5577 6.88311 10.6255 7.08333 10.625C7.28356 10.6245 7.4519 10.5572 7.58838 10.4217ZM7.58838 4.75433C7.7239 4.61881 7.79167 4.45069 7.79167 4.25C7.79167 4.04931 7.72367 3.88119 7.58767 3.74567C7.45167 3.61014 7.28356 3.54214 7.08333 3.54167C6.88311 3.54119 6.715 3.60919 6.579 3.74567C6.443 3.88214 6.375 4.05025 6.375 4.25C6.375 4.44975 6.443 4.6181 6.579 4.75504C6.715 4.89199 6.88311 4.95975 7.08333 4.95833C7.28356 4.95692 7.4519 4.88892 7.58838 4.75433ZM7.08333 14.1667C6.10347 14.1667 5.18264 13.9806 4.32083 13.6085C3.45903 13.2364 2.70938 12.7318 2.07188 12.0948C1.43438 11.4578 0.929807 10.7081 0.558168 9.84583C0.186529 8.98355 0.000473119 8.06272 8.96624e-07 7.08333C-0.000471326 6.10394 0.185584 5.18311 0.558168 4.32083C0.930751 3.45856 1.43532 2.7089 2.07188 2.07188C2.70843 1.43485 3.45808 0.930278 4.32083 0.558167C5.18359 0.186056 6.10442 0 7.08333 0C8.06225 0 8.98308 0.186056 9.84583 0.558167C10.7086 0.930278 11.4582 1.43485 12.0948 2.07188C12.7313 2.7089 13.2362 3.45856 13.6092 4.32083C13.9823 5.18311 14.1681 6.10394 14.1667 7.08333C14.1653 8.06272 13.9792 8.98355 13.6085 9.84583C13.2378 10.7081 12.7332 11.4578 12.0948 12.0948C11.4563 12.7318 10.7067 13.2366 9.84583 13.6092C8.98497 13.9818 8.06414 14.1676 7.08333 14.1667ZM7.08333 12.75C8.66528 12.75 10.0052 12.201 11.1031 11.1031C12.201 10.0052 12.75 8.66528 12.75 7.08333C12.75 5.50139 12.201 4.16146 11.1031 3.06354C10.0052 1.96562 8.66528 1.41667 7.08333 1.41667C5.50139 1.41667 4.16146 1.96562 3.06354 3.06354C1.96563 4.16146 1.41667 5.50139 1.41667 7.08333C1.41667 8.66528 1.96563 10.0052 3.06354 11.1031C4.16146 12.201 5.50139 12.75 7.08333 12.75Z" fill="#6F7074"/>
</svg>
