<svg width="30" height="30" viewBox="0 0 30 30" fill="none" xmlns="http://www.w3.org/2000/svg">
<rect x="0.25" y="0.25" width="29.5" height="29.5" rx="5.75" fill="#1C172D"/>
<rect x="0.25" y="0.25" width="29.5" height="29.5" rx="5.75" stroke="#7339E6" stroke-width="0.5"/>
<path fill-rule="evenodd" clip-rule="evenodd" d="M15.3921 16.564C15.1719 16.4208 14.982 16.2357 14.8333 16.0192C14.6846 15.8027 14.58 15.559 14.5255 15.3021C14.471 15.0451 14.4676 14.7799 14.5156 14.5217C14.5636 14.2635 14.6619 14.0172 14.8051 13.797L16.9861 10.444C17.1269 10.2188 17.3112 10.0239 17.5282 9.87064C17.7451 9.71742 17.9905 9.60896 18.2498 9.55158C18.5091 9.4942 18.7773 9.48906 19.0387 9.53645C19.3 9.58384 19.5493 9.68281 19.772 9.82759C19.9947 9.97238 20.1863 10.1601 20.3357 10.3797C20.485 10.5994 20.5892 10.8466 20.6419 11.1069C20.6947 11.3672 20.6951 11.6354 20.6431 11.8959C20.5911 12.1564 20.4878 12.4039 20.3391 12.624L18.1591 15.978C17.8699 16.4226 17.4159 16.7341 16.897 16.844C16.378 16.9539 15.8367 16.8532 15.3921 16.564ZM12.9501 16.766C12.6145 16.135 12.4541 15.4256 12.4856 14.7115C12.5171 13.9975 12.7393 13.305 13.1291 12.706L15.3091 9.35297C15.8875 8.46357 16.7956 7.84037 17.8335 7.62049C18.3474 7.51161 18.8778 7.50503 19.3942 7.60111C19.9107 7.69719 20.4032 7.89406 20.8436 8.18047C21.284 8.46688 21.6636 8.83723 21.9609 9.27037C22.2582 9.70351 22.4672 10.191 22.5761 10.7049C22.6849 11.2188 22.6915 11.7492 22.5955 12.2656C22.4994 12.7821 22.3025 13.2746 22.0161 13.715L19.8361 17.068C19.4568 17.6517 18.9317 18.1263 18.3127 18.4449C17.6937 18.7635 17.0023 18.9151 16.3068 18.8846C15.6113 18.8541 14.9358 18.6426 14.3471 18.271C13.7584 17.8995 13.2769 17.3807 12.9501 16.766Z" fill="#7339E6"/>
<path fill-rule="evenodd" clip-rule="evenodd" d="M10.4441 20.503C10.2239 20.3598 10.034 20.1747 9.88527 19.9582C9.73658 19.7417 9.63199 19.498 9.57748 19.241C9.52297 18.9841 9.51961 18.7189 9.56759 18.4607C9.61556 18.2024 9.71394 17.9562 9.85709 17.736L12.0381 14.383C12.1789 14.1577 12.3632 13.9628 12.5802 13.8096C12.7971 13.6564 13.0425 13.5479 13.3018 13.4906C13.5611 13.4332 13.8293 13.428 14.0907 13.4754C14.352 13.5228 14.6013 13.6218 14.824 13.7666C15.0467 13.9114 15.2383 14.0991 15.3877 14.3187C15.537 14.5383 15.6412 14.7855 15.6939 15.0459C15.7467 15.3062 15.7471 15.5744 15.6951 15.8349C15.6431 16.0954 15.5398 16.3429 15.3911 16.563L13.2111 19.917C12.9219 20.3616 12.4679 20.6731 11.949 20.783C11.43 20.8929 10.8887 20.7922 10.4441 20.503ZM8.00209 20.705C7.66649 20.0739 7.50609 19.3645 7.53757 18.6505C7.56905 17.9365 7.79126 17.244 8.18109 16.645L10.3611 13.293C10.6474 12.8526 11.0177 12.4729 11.4508 12.1756C11.8839 11.8783 12.3713 11.6693 12.8852 11.5603C13.399 11.4514 13.9293 11.4448 14.4458 11.5408C14.9622 11.6368 15.4547 11.8336 15.8951 12.12C16.3355 12.4063 16.7152 12.7766 17.0124 13.2097C17.3097 13.6427 17.5188 14.1301 17.6277 14.644C17.7366 15.1579 17.7433 15.6882 17.6473 16.2046C17.5512 16.7211 17.3544 17.2136 17.0681 17.654L14.8881 21.007C14.5088 21.5907 13.9837 22.0653 13.3647 22.3839C12.7457 22.7025 12.0543 22.8541 11.3588 22.8236C10.6633 22.7931 9.98782 22.5816 9.39911 22.21C8.8104 21.8384 8.32886 21.3197 8.00209 20.705Z" fill="#7339E6"/>
</svg>
