<svg width="10" height="13" viewBox="0 0 10 13" fill="none" xmlns="http://www.w3.org/2000/svg">
<path d="M2.25 4.91667V2.91667C2.25 1.44333 3.44333 0.25 4.91667 0.25C6.39 0.25 7.58333 1.44333 7.58333 2.91667V4.91667M4.91667 8.25C5.09348 8.25 5.26305 8.17976 5.38807 8.05474C5.51309 7.92971 5.58333 7.76014 5.58333 7.58333C5.58333 7.40652 5.51309 7.23695 5.38807 7.11193C5.26305 6.9869 5.09348 6.91667 4.91667 6.91667C4.73986 6.91667 4.57029 6.9869 4.44526 7.11193C4.32024 7.23695 4.25 7.40652 4.25 7.58333C4.25 7.76014 4.32024 7.92971 4.44526 8.05474C4.57029 8.17976 4.73986 8.25 4.91667 8.25ZM4.91667 8.25V10.25M1.31667 4.91667H8.51667C9.10333 4.91667 9.58333 5.39667 9.58333 5.98333V10.65C9.58333 11.53 8.86333 12.25 7.98333 12.25H1.85C0.97 12.25 0.25 11.53 0.25 10.65V5.98333C0.25 5.39667 0.73 4.91667 1.31667 4.91667Z" stroke="#6F7074" stroke-width="0.5" stroke-miterlimit="10" stroke-linecap="round" stroke-linejoin="round"/>
</svg>
