<svg width="40" height="40" viewBox="0 0 40 40" fill="none" xmlns="http://www.w3.org/2000/svg">
<rect x="0.25" y="0.25" width="39.5" height="39.5" rx="5.75" fill="#1C172D"/>
<rect x="0.25" y="0.25" width="39.5" height="39.5" rx="5.75" stroke="#7339E6" stroke-width="0.5"/>
<path d="M15.8 18.5556C16.9076 18.5556 17.9903 18.2167 18.9112 17.5818C19.8321 16.947 20.5499 16.0446 20.9737 14.9888C21.3976 13.9331 21.5085 12.7714 21.2924 11.6506C21.0763 10.5298 20.543 9.50031 19.7598 8.69227C18.9766 7.88424 17.9788 7.33396 16.8925 7.11102C15.8062 6.88808 14.6802 7.0025 13.657 7.43981C12.6337 7.87712 11.7591 8.61767 11.1438 9.56782C10.5284 10.518 10.2 11.635 10.2 12.7778C10.2 14.3101 10.79 15.7797 11.8402 16.8633C12.8904 17.9468 14.3148 18.5556 15.8 18.5556ZM15.8 9.88889C16.3538 9.88889 16.8951 10.0583 17.3556 10.3758C17.8161 10.6932 18.1749 11.1444 18.3869 11.6722C18.5988 12.2001 18.6542 12.781 18.5462 13.3414C18.4382 13.9018 18.1715 14.4165 17.7799 14.8205C17.3883 15.2246 16.8894 15.4997 16.3463 15.6112C15.8031 15.7226 15.2401 15.6654 14.7285 15.4468C14.2169 15.2281 13.7796 14.8578 13.4719 14.3828C13.1642 13.9077 13 13.3491 13 12.7778C13 12.0116 13.295 11.2768 13.8201 10.735C14.3452 10.1933 15.0574 9.88889 15.8 9.88889ZM27 21.4444C27.8307 21.4444 28.6427 21.1903 29.3334 20.7141C30.0241 20.238 30.5624 19.5612 30.8803 18.7694C31.1982 17.9776 31.2814 17.1063 31.1193 16.2657C30.9572 15.4251 30.5572 14.653 29.9698 14.047C29.3825 13.441 28.6341 13.0282 27.8194 12.861C27.0047 12.6938 26.1602 12.7797 25.3927 13.1076C24.6253 13.4356 23.9693 13.991 23.5078 14.7036C23.0463 15.4163 22.8 16.2541 22.8 17.1111C22.8 18.2604 23.2425 19.3626 24.0302 20.1752C24.8178 20.9879 25.8861 21.4444 27 21.4444ZM27 15.6667C27.2769 15.6667 27.5476 15.7514 27.7778 15.9101C28.008 16.0688 28.1875 16.2944 28.2934 16.5583C28.3994 16.8223 28.4271 17.1127 28.3731 17.3929C28.3191 17.6731 28.1857 17.9305 27.99 18.1325C27.7942 18.3345 27.5447 18.4721 27.2731 18.5278C27.0016 18.5835 26.7201 18.5549 26.4642 18.4456C26.2084 18.3363 25.9898 18.1511 25.8359 17.9136C25.6821 17.6761 25.6 17.3968 25.6 17.1111C25.6 16.728 25.7475 16.3606 26.01 16.0897C26.2726 15.8189 26.6287 15.6667 27 15.6667ZM27 22.8889C25.4486 22.8907 23.9416 23.4242 22.716 24.4056C21.3447 22.9963 19.5997 22.0375 17.701 21.6502C15.8022 21.2628 13.8348 21.4642 12.0469 22.229C10.259 22.9937 8.73058 24.2876 7.65444 25.9474C6.5783 27.6072 6.00262 29.5586 6 31.5556C6 31.9386 6.1475 32.306 6.41005 32.5769C6.6726 32.8478 7.0287 33 7.4 33C7.7713 33 8.1274 32.8478 8.38995 32.5769C8.6525 32.306 8.8 31.9386 8.8 31.5556C8.8 29.6401 9.5375 27.8031 10.8503 26.4487C12.163 25.0942 13.9435 24.3333 15.8 24.3333C17.6565 24.3333 19.437 25.0942 20.7497 26.4487C22.0625 27.8031 22.8 29.6401 22.8 31.5556C22.8 31.9386 22.9475 32.306 23.2101 32.5769C23.4726 32.8478 23.8287 33 24.2 33C24.5713 33 24.9274 32.8478 25.1899 32.5769C25.4525 32.306 25.6 31.9386 25.6 31.5556C25.6033 29.8633 25.189 28.198 24.396 26.7167C25.0147 26.2122 25.7585 25.8977 26.5424 25.8091C27.3262 25.7204 28.1184 25.8612 28.8283 26.2154C29.5383 26.5696 30.1372 27.1228 30.5566 27.8117C30.976 28.5007 31.199 29.2975 31.2 30.1111C31.2 30.4942 31.3475 30.8616 31.61 31.1325C31.8726 31.4034 32.2287 31.5556 32.6 31.5556C32.9713 31.5556 33.3274 31.4034 33.59 31.1325C33.8525 30.8616 34 30.4942 34 30.1111C34 28.1957 33.2625 26.3587 31.9497 25.0042C30.637 23.6498 28.8565 22.8889 27 22.8889Z" fill="#7339E6"/>
</svg>
