<svg width="15" height="16" viewBox="0 0 15 16" fill="none" xmlns="http://www.w3.org/2000/svg">
<path d="M14.6336 6.61583L8.3836 0.365827C8.1492 0.131584 7.83139 0 7.50001 0C7.16863 0 6.85081 0.131584 6.61641 0.365827L0.366414 6.61583C0.249777 6.7316 0.157319 6.8694 0.0944168 7.02123C0.0315145 7.17305 -0.000577075 7.33586 7.85428e-06 7.5002V15.0002C7.85428e-06 15.166 0.065856 15.3249 0.183066 15.4421C0.300276 15.5594 0.459247 15.6252 0.625008 15.6252H5.62501C5.79077 15.6252 5.94974 15.5594 6.06695 15.4421C6.18416 15.3249 6.25001 15.166 6.25001 15.0002V10.6252H8.75001V15.0002C8.75001 15.166 8.81586 15.3249 8.93307 15.4421C9.05028 15.5594 9.20925 15.6252 9.37501 15.6252H14.375C14.5408 15.6252 14.6997 15.5594 14.817 15.4421C14.9342 15.3249 15 15.166 15 15.0002V7.5002C15.0006 7.33586 14.9685 7.17305 14.9056 7.02123C14.8427 6.8694 14.7502 6.7316 14.6336 6.61583ZM13.75 14.3752H10V10.0002C10 9.83444 9.93416 9.67547 9.81695 9.55826C9.69974 9.44105 9.54077 9.3752 9.37501 9.3752H5.62501C5.45925 9.3752 5.30028 9.44105 5.18307 9.55826C5.06586 9.67547 5.00001 9.83444 5.00001 10.0002V14.3752H1.25001V7.5002L7.50001 1.2502L13.75 7.5002V14.3752Z" fill="currentColor"/>
</svg>
