<svg width="15" height="15" viewBox="0 0 15 15" fill="none" xmlns="http://www.w3.org/2000/svg">
<path fill-rule="evenodd" clip-rule="evenodd" d="M4.16667 3.33333C4.16667 2.44928 4.51786 1.60143 5.14298 0.976311C5.7681 0.351189 6.61594 0 7.5 0C8.38405 0 9.2319 0.351189 9.85702 0.976311C10.4821 1.60143 10.8333 2.44928 10.8333 3.33333C10.8333 4.21739 10.4821 5.06523 9.85702 5.69036C9.2319 6.31548 8.38405 6.66667 7.5 6.66667C6.61594 6.66667 5.7681 6.31548 5.14298 5.69036C4.51786 5.06523 4.16667 4.21739 4.16667 3.33333ZM4.16667 8.33333C3.0616 8.33333 2.00179 8.77232 1.22039 9.55372C0.438987 10.3351 0 11.3949 0 12.5C0 13.163 0.263392 13.7989 0.732233 14.2678C1.20107 14.7366 1.83696 15 2.5 15H12.5C13.163 15 13.7989 14.7366 14.2678 14.2678C14.7366 13.7989 15 13.163 15 12.5C15 11.3949 14.561 10.3351 13.7796 9.55372C12.9982 8.77232 11.9384 8.33333 10.8333 8.33333H4.16667Z" fill="currentColor"/>
</svg>
