<svg width="17" height="15" viewBox="0 0 17 15" fill="none" xmlns="http://www.w3.org/2000/svg">
<path d="M5.83333 6.66667C6.4926 6.66667 7.13707 6.47117 7.68523 6.1049C8.2334 5.73863 8.66064 5.21803 8.91293 4.60895C9.16522 3.99986 9.23124 3.32964 9.10262 2.68303C8.974 2.03643 8.65653 1.44249 8.19036 0.976312C7.72418 0.510137 7.13024 0.192668 6.48363 0.0640506C5.83703 -0.0645668 5.16681 0.00144427 4.55772 0.253736C3.94863 0.506029 3.42804 0.93327 3.06177 1.48143C2.6955 2.0296 2.5 2.67406 2.5 3.33334C2.5 4.21739 2.85119 5.06524 3.47631 5.69036C4.10143 6.31548 4.94928 6.66667 5.83333 6.66667ZM5.83333 1.66667C6.16297 1.66667 6.4852 1.76442 6.75928 1.94755C7.03337 2.13069 7.24699 2.39099 7.37313 2.69553C7.49928 3.00007 7.53228 3.33518 7.46798 3.65849C7.40367 3.98179 7.24493 4.27876 7.01184 4.51185C6.77876 4.74493 6.48179 4.90367 6.15848 4.96798C5.83518 5.03229 5.50007 4.99928 5.19553 4.87313C4.89098 4.74699 4.63069 4.53337 4.44755 4.25929C4.26441 3.9852 4.16667 3.66297 4.16667 3.33334C4.16667 2.89131 4.34226 2.46738 4.65482 2.15482C4.96738 1.84226 5.39131 1.66667 5.83333 1.66667ZM12.5 8.33334C12.9945 8.33334 13.4778 8.18671 13.8889 7.91201C14.3 7.63731 14.6205 7.24686 14.8097 6.79004C14.9989 6.33323 15.0484 5.83056 14.952 5.34561C14.8555 4.86066 14.6174 4.4152 14.2678 4.06557C13.9181 3.71594 13.4727 3.47784 12.9877 3.38137C12.5028 3.28491 12.0001 3.33442 11.5433 3.52364C11.0865 3.71286 10.696 4.03329 10.4213 4.44441C10.1466 4.85553 10 5.33888 10 5.83334C10 6.49638 10.2634 7.13226 10.7322 7.6011C11.2011 8.06994 11.837 8.33334 12.5 8.33334ZM12.5 5C12.6648 5 12.8259 5.04888 12.963 5.14044C13.1 5.23201 13.2068 5.36216 13.2699 5.51443C13.333 5.6667 13.3495 5.83426 13.3173 5.99591C13.2852 6.15756 13.2058 6.30605 13.0893 6.42259C12.9727 6.53913 12.8242 6.6185 12.6626 6.65066C12.5009 6.68281 12.3334 6.66631 12.1811 6.60323C12.0288 6.54016 11.8987 6.43335 11.8071 6.29631C11.7155 6.15927 11.6667 5.99815 11.6667 5.83334C11.6667 5.61232 11.7545 5.40036 11.9107 5.24408C12.067 5.0878 12.279 5 12.5 5ZM12.5 9.16667C11.5765 9.16769 10.6795 9.47548 9.95 10.0417C9.13376 9.22863 8.09505 8.6755 6.96485 8.45202C5.83466 8.22855 4.6636 8.34474 3.59936 8.78595C2.53511 9.22715 1.62534 9.97362 0.984784 10.9312C0.344225 11.8888 0.00155849 13.0146 0 14.1667C0 14.3877 0.0877973 14.5996 0.244078 14.7559C0.400358 14.9122 0.61232 15 0.833333 15C1.05435 15 1.26631 14.9122 1.42259 14.7559C1.57887 14.5996 1.66667 14.3877 1.66667 14.1667C1.66667 13.0616 2.10565 12.0018 2.88706 11.2204C3.66846 10.439 4.72826 10 5.83333 10C6.9384 10 7.99821 10.439 8.77961 11.2204C9.56101 12.0018 10 13.0616 10 14.1667C10 14.3877 10.0878 14.5996 10.2441 14.7559C10.4004 14.9122 10.6123 15 10.8333 15C11.0543 15 11.2663 14.9122 11.4226 14.7559C11.5789 14.5996 11.6667 14.3877 11.6667 14.1667C11.6687 13.1904 11.422 12.2296 10.95 11.375C11.3183 11.084 11.761 10.9025 12.2276 10.8514C12.6942 10.8002 13.1657 10.8815 13.5883 11.0858C14.0109 11.2901 14.3674 11.6093 14.617 12.0068C14.8667 12.4042 14.9994 12.864 15 13.3333C15 13.5543 15.0878 13.7663 15.2441 13.9226C15.4004 14.0789 15.6123 14.1667 15.8333 14.1667C16.0543 14.1667 16.2663 14.0789 16.4226 13.9226C16.5789 13.7663 16.6667 13.5543 16.6667 13.3333C16.6667 12.2283 16.2277 11.1685 15.4463 10.3871C14.6649 9.60566 13.6051 9.16667 12.5 9.16667Z" fill="currentColor"/>
</svg>
