<svg width="18" height="39" viewBox="0 0 18 39" fill="none" xmlns="http://www.w3.org/2000/svg">
<path d="M9.93359 4.15332C10.7766 6.5755 11.9008 9.85592 13.0244 13.291C14.1484 16.7273 15.2715 20.3139 16.1123 23.3486C16.5328 24.8663 16.8809 26.2414 17.124 27.3877C17.3693 28.5439 17.5 29.4348 17.5 30C17.5 34.6944 13.6944 38.5 9 38.5C4.30558 38.5 0.5 34.6944 0.5 30C0.5 29.4348 0.630708 28.5439 0.875977 27.3877C1.11913 26.2414 1.46723 24.8663 1.8877 23.3486C2.72846 20.3139 3.85157 16.7273 4.97559 13.291C6.0992 9.85592 7.22335 6.5755 8.06641 4.15332C8.44138 3.07599 8.761 2.16848 9 1.49316C9.239 2.16848 9.55862 3.07599 9.93359 4.15332Z" fill="#1C172D" stroke="url(#paint0_linear_2011_7)"/>
<path d="M9.09998 24.25C11.7233 24.25 13.85 26.3766 13.85 29C13.85 31.6234 11.7233 33.75 9.09998 33.75C6.47664 33.75 4.34998 31.6233 4.34998 29C4.34998 26.3767 6.47664 24.25 9.09998 24.25Z" fill="white" stroke="#7339E6" stroke-width="0.5"/>
<defs>
<linearGradient id="paint0_linear_2011_7" x1="9" y1="0" x2="9" y2="39" gradientUnits="userSpaceOnUse">
<stop stop-color="white"/>
<stop offset="0.5" stop-color="#7339E6"/>
<stop offset="1" stop-color="#402080"/>
</linearGradient>
</defs>
</svg>
