<svg width="40" height="40" viewBox="0 0 40 40" fill="none" xmlns="http://www.w3.org/2000/svg">
<rect x="0.25" y="0.25" width="39.5" height="39.5" rx="5.75" fill="#1C172D"/>
<rect x="0.25" y="0.25" width="39.5" height="39.5" rx="5.75" stroke="#7339E6" stroke-width="0.5"/>
<path d="M20 30.3125V20.9375M20 20.9375C20 16.3081 21.2 12.8825 21.7306 11.8081C23.4613 8.30561 27.7869 9.18123 27.7869 10.9325C27.7869 13.5612 21.7306 15.3125 21.7306 15.3125H30.3125V20.9375H28.5819M20 20.9375C20 16.3081 18.8 12.8825 18.2694 11.8081C16.5069 8.24186 12.2131 9.18123 12.2131 10.9325C12.2131 14.4369 18.2694 15.3125 18.2694 15.3125H9.6875V20.9375H11.5625M28.5819 20.9375V30.3125H11.5625V20.9375M28.5819 20.9375H11.5625" stroke="#7339E6" stroke-width="2" stroke-linejoin="round"/>
</svg>
