<svg width="20" height="20" viewBox="0 0 20 20" fill="none" xmlns="http://www.w3.org/2000/svg">
<path d="M11.3133 14.3925L7.05492 12.07C6.64617 12.4757 6.12643 12.7514 5.56125 12.8622C4.99606 12.973 4.41072 12.914 3.87903 12.6926C3.34733 12.4712 2.89308 12.0973 2.57355 11.6182C2.25401 11.139 2.0835 10.5759 2.0835 9.99999C2.0835 9.42405 2.25401 8.86099 2.57355 8.38182C2.89308 7.90264 3.34733 7.52879 3.87903 7.30741C4.41072 7.08602 4.99606 7.027 5.56125 7.1378C6.12643 7.2486 6.64617 7.52424 7.05492 7.92999L11.3133 5.60749C11.1672 4.92227 11.2727 4.20737 11.6104 3.59354C11.9481 2.9797 12.4955 2.50793 13.1525 2.26452C13.8095 2.0211 14.5321 2.0223 15.1883 2.2679C15.8444 2.51349 16.3902 2.98707 16.7259 3.60202C17.0616 4.21698 17.1647 4.93222 17.0164 5.61695C16.8681 6.30168 16.4782 6.91015 15.9182 7.33107C15.3581 7.752 14.6652 7.95726 13.9663 7.90932C13.2673 7.86138 12.6089 7.56344 12.1116 7.06999L7.85326 9.39249C7.93843 9.79273 7.93843 10.2064 7.85326 10.6067L12.1116 12.93C12.6089 12.4365 13.2673 12.1386 13.9663 12.0907C14.6652 12.0427 15.3581 12.248 15.9182 12.6689C16.4782 13.0898 16.8681 13.6983 17.0164 14.383C17.1647 15.0678 17.0616 15.783 16.7259 16.398C16.3902 17.0129 15.8444 17.4865 15.1883 17.7321C14.5321 17.9777 13.8095 17.9789 13.1525 17.7355C12.4955 17.492 11.9481 17.0203 11.6104 16.4064C11.2727 15.7926 11.1672 15.0777 11.3133 14.3925Z" fill="#6F7074"/>
</svg>
