<svg width="40" height="40" viewBox="0 0 40 40" fill="none" xmlns="http://www.w3.org/2000/svg">
<rect x="0.25" y="0.25" width="39.5" height="39.5" rx="5.75" fill="#1C172D"/>
<rect x="0.25" y="0.25" width="39.5" height="39.5" rx="5.75" stroke="#7339E6" stroke-width="0.5"/>
<path d="M8.75 20C8.75 21.4774 9.04099 22.9403 9.60636 24.3052C10.1717 25.6701 11.0004 26.9103 12.045 27.955C13.0897 28.9996 14.3299 29.8283 15.6948 30.3936C17.0597 30.959 18.5226 31.25 20 31.25C21.4774 31.25 22.9403 30.959 24.3052 30.3936C25.6701 29.8283 26.9103 28.9996 27.955 27.955C28.9996 26.9103 29.8283 25.6701 30.3936 24.3052C30.959 22.9403 31.25 21.4774 31.25 20C31.25 17.0163 30.0647 14.1548 27.955 12.045C25.8452 9.93526 22.9837 8.75 20 8.75C17.0163 8.75 14.1548 9.93526 12.045 12.045C9.93526 14.1548 8.75 17.0163 8.75 20Z" stroke="#7339E6" stroke-width="2" stroke-linecap="round" stroke-linejoin="round"/>
<path d="M20 13.75V20L23.75 23.75" stroke="#7339E6" stroke-width="2" stroke-linecap="round" stroke-linejoin="round"/>
</svg>
