<svg width="11" height="14" viewBox="0 0 11 14" fill="none" xmlns="http://www.w3.org/2000/svg">
<path d="M5.33333 0.66726L5.596 0.0539263C5.513 0.0183464 5.42364 0 5.33333 0C5.24303 0 5.15367 0.0183464 5.07067 0.0539263L5.33333 0.66726ZM5.33333 12.6673L5.00267 13.2459C5.10338 13.3035 5.21735 13.3337 5.33333 13.3337C5.44932 13.3337 5.56329 13.3035 5.664 13.2459L5.33333 12.6673ZM5.07067 0.0545931L0.808 1.88059L1.33333 3.10726L5.596 1.28059L5.07067 0.0545931ZM1.012e-07 3.10659V7.67993H1.33333V3.10659H1.012e-07ZM2.35133 11.7313L5.00267 13.2459L5.664 12.0886L3.01267 10.5733L2.35133 11.7313ZM5.664 13.2459L8.31533 11.7313L7.654 10.5733L5.00267 12.0886L5.664 13.2459ZM10.6667 7.67926V3.10726H9.33333V7.68059L10.6667 7.67926ZM9.85867 1.88126L5.596 0.0545931L5.07067 1.27993L9.33333 3.10726L9.85867 1.88126ZM10.6667 3.10726C10.6666 2.84636 10.5901 2.59121 10.4464 2.37341C10.3028 2.1556 10.0985 1.98405 9.85867 1.88126L9.33333 3.10726H10.6667ZM8.31533 11.7313C9.02976 11.323 9.62354 10.7338 10.0365 10.0221C10.4494 9.31035 10.6668 8.5021 10.6667 7.67926H9.33333C9.33326 8.26692 9.17783 8.84412 8.8828 9.35235C8.58776 9.86058 8.16361 10.2818 7.65333 10.5733L8.31533 11.7313ZM1.012e-07 7.67926C-3.67659e-05 8.50199 0.217431 9.3101 0.630362 10.0217C1.04329 10.7333 1.63701 11.3231 2.35133 11.7313L3.01267 10.5733C2.50271 10.2818 2.07882 9.86078 1.78392 9.35281C1.48901 8.84484 1.33357 8.26796 1.33333 7.68059L1.012e-07 7.67926ZM0.808 1.88059C0.568104 1.98343 0.363667 2.15508 0.220037 2.37302C0.0764058 2.59095 -0.000101569 2.84625 1.012e-07 3.10726H1.33333L0.808 1.88059Z" fill="#6F7074"/>
<path d="M7.33334 5.33392L4.66668 8.00059L3.33334 6.66726" stroke="#6F7074" stroke-linecap="round" stroke-linejoin="round"/>
</svg>
