<svg width="24" height="24" viewBox="0 0 24 24" fill="none" xmlns="http://www.w3.org/2000/svg">
<path d="M14.7158 11.2842L9.7158 6.28421C9.62256 6.19097 9.51187 6.11701 9.39005 6.06655C9.26823 6.01609 9.13766 5.99011 9.0058 5.99011C8.7395 5.99011 8.4841 6.0959 8.2958 6.28421C8.20256 6.37744 8.1286 6.48813 8.07814 6.60996C8.02768 6.73178 8.00171 6.86235 8.00171 6.99421C8.00171 7.26051 8.1075 7.5159 8.2958 7.70421L12.5958 11.9942L8.2958 16.2842C8.20207 16.3772 8.12768 16.4878 8.07691 16.6096C8.02614 16.7315 8 16.8622 8 16.9942C8 17.1262 8.02614 17.2569 8.07691 17.3788C8.12768 17.5006 8.20207 17.6112 8.2958 17.7042C8.38876 17.7979 8.49936 17.8723 8.62122 17.9231C8.74308 17.9739 8.87379 18 9.0058 18C9.13781 18 9.26852 17.9739 9.39038 17.9231C9.51224 17.8723 9.62284 17.7979 9.7158 17.7042L14.7158 12.7042C14.8095 12.6112 14.8839 12.5006 14.9347 12.3788C14.9855 12.2569 15.0116 12.1262 15.0116 11.9942C15.0116 11.8622 14.9855 11.7315 14.9347 11.6096C14.8839 11.4878 14.8095 11.3772 14.7158 11.2842Z" fill="#6F7074"/>
</svg>
